<svg class="icon" xmlns="http://www.w3.org/2000/svg" viewBox="0 0 64 64" style="width:20px; fill:#260951;">
<g id="Layer_33" data-name="Layer 33" stroke-width="5">
<path d="M51.88,43.11,43.94,46.5s-.08,0-.08-.06a3.79,3.79,0,0,0-.56-2.72,4.9,4.9,0,0,0-4.17-2.16H32.85a1.18,1.18,0,0,1-.55-.14l-5.56-3.13a7.46,7.46,0,0,0-3.66-1H15.9a.06.06,0,0,1-.06-.06v-.76A3.56,3.56,0,0,0,12.28,33H8.77A3.56,3.56,0,0,0,5.2,36.51v18a3.56,3.56,0,0,0,3.57,3.56h3.51a3.56,3.56,0,0,0,3.56-3.56v-.08a.06.06,0,0,1,.07-.06,9.09,9.09,0,0,1,3.11,1l5.28,3.16a14,14,0,0,0,5.48,2,13.55,13.55,0,0,0,7.29-1.11L54.88,50.7a4.08,4.08,0,0,0-3-7.59Zm-38,11.42a1.63,1.63,0,0,1-1.63,1.63H8.77a1.63,1.63,0,0,1-1.63-1.63v-18a1.63,1.63,0,0,1,1.63-1.63h3.51a1.63,1.63,0,0,1,1.63,1.63Zm40.17-5.79,0,0L36.2,57.46a11.32,11.32,0,0,1-6.15.94,11.9,11.9,0,0,1-4.63-1.67l-5.31-3.18a11.64,11.64,0,0,0-4.22-1.31,0,0,0,0,1-.05-.05V39.5a.06.06,0,0,1,.06,0h7.18a5.33,5.33,0,0,1,2.62.68l5.56,3.13a3.31,3.31,0,0,0,1.59.42h6.72a2.19,2.19,0,0,1,2.16,1.57,2.12,2.12,0,0,1-2,2.66H28.93a1.06,1.06,0,1,0,0,2.11H39.68a4.28,4.28,0,0,0,2-.49l10.92-4.42a2,2,0,1,1,1.49,3.63Z"/><path d="M46.32,23.91a1,1,0,0,0-1,1,1.44,1.44,0,0,1-2.75.57,2.06,2.06,0,0,0,.35-.42L44,23.23a1.72,1.72,0,0,0,0-1.7,1.69,1.69,0,0,0-1.47-.85H40.39a1.69,1.69,0,0,0-1.47.85,1.67,1.67,0,0,0,0,1.7L40,25.06a1.69,1.69,0,0,0,.34.41,1.43,1.43,0,0,1-2.75-.56,1,1,0,0,0-2,0,3.42,3.42,0,0,0,3,3.38,3.39,3.39,0,0,0,5.8,0,3.43,3.43,0,0,0,3-3.38A1,1,0,0,0,46.32,23.91ZM42,22.68l-.53.92-.53-.92Zm-1.11,5.1a2.8,2.8,0,0,0,.57-.46,3.17,3.17,0,0,0,.58.46,1.25,1.25,0,0,1-1.15,0Z"/><path d="M50.63,18.35a3.75,3.75,0,1,0-7.49,0,1,1,0,0,0,2,0,1.75,1.75,0,1,1,3.49,0,1,1,0,0,0,2,0Z"/><path d="M37.75,18.35a1,1,0,0,0,2,0,3.75,3.75,0,1,0-7.49,0,1,1,0,0,0,2,0,1.75,1.75,0,1,1,3.49,0Z"/><path d="M56.41,25.17a14.72,14.72,0,0,0-.54-7.29L58,5a2.2,2.2,0,0,0-3.38-2.2L46.18,8.19a15.23,15.23,0,0,0-4.74-.76,15.06,15.06,0,0,0-4.72.76L28.33,2.76A2.2,2.2,0,0,0,25,5L27,17.85a15,15,0,0,0-.78,4.77,15.33,15.33,0,0,0,.23,2.56,8.72,8.72,0,0,0-3.37,6.89,1,1,0,0,0,2,0A6.75,6.75,0,0,1,27,27.37a14.9,14.9,0,0,0,.73,1.79,7.78,7.78,0,0,0-1.54,4.72,1,1,0,0,0,2,0,6.13,6.13,0,0,1,.64-2.76,15.19,15.19,0,0,0,25.21,0,6.19,6.19,0,0,1,.65,2.78,1,1,0,1,0,2,0,7.74,7.74,0,0,0-1.56-4.73,14,14,0,0,0,.73-1.79,6.73,6.73,0,0,1,1.93,4.71,1,1,0,1,0,2,0A8.73,8.73,0,0,0,56.41,25.17ZM55.66,4.44a.18.18,0,0,1,.22,0,.16.16,0,0,1,.09.2l-1.61,10a15.29,15.29,0,0,0-6-5.53Zm-28.74.2a.19.19,0,0,1,.09-.2.2.2,0,0,1,.23,0l7.25,4.69a15.27,15.27,0,0,0-6,5.51ZM41.44,35.82a13.17,13.17,0,0,1-11.22-6.29A2.85,2.85,0,0,1,31.86,29a1,1,0,0,0,0-2,4.86,4.86,0,0,0-2.58.76,11.56,11.56,0,0,1-.56-1.66,6.75,6.75,0,0,1,3.14-.77,1,1,0,0,0,0-2,8.74,8.74,0,0,0-3.54.75,13.94,13.94,0,0,1-.08-1.45,13.2,13.2,0,0,1,26.4,0,13.59,13.59,0,0,1-.08,1.44A8.64,8.64,0,0,0,51,23.32a1,1,0,0,0,0,2,6.67,6.67,0,0,1,3.12.77,11.87,11.87,0,0,1-.56,1.65A4.81,4.81,0,0,0,51,27a1,1,0,0,0,0,2,2.91,2.91,0,0,1,1.63.53A13.19,13.19,0,0,1,41.44,35.82Z"/>
</g></svg>